<svg width="40" height="40" viewBox="0 0 40 40" fill="none" xmlns="http://www.w3.org/2000/svg">
<path d="M34.678 15.8115C35.0256 16.0653 35.1718 16.5131 35.0409 16.9231L29.3421 34.7823C29.2098 35.1968 28.8246 35.4783 28.3894 35.4783H11.6106C11.1754 35.4783 10.7902 35.1968 10.6579 34.7823L4.95908 16.9231C4.82824 16.5131 4.97442 16.0653 5.32198 15.8115L19.4102 5.52288C19.7616 5.26631 20.2384 5.26631 20.5898 5.52288L34.678 15.8115ZM0.582082 14.1835C0.234475 14.4374 0.0883563 14.8853 0.219344 15.2953L7.77776 38.9565C7.91015 39.3709 8.29528 39.6522 8.73034 39.6522H31.2697C31.7047 39.6522 32.0899 39.3709 32.2222 38.9565L39.7807 15.2953C39.9116 14.8853 39.7655 14.4374 39.4179 14.1835L20.5898 0.43084C20.2385 0.1742 19.7615 0.1742 19.4102 0.43084L0.582082 14.1835Z" fill="#597393"/>
</svg>
