<svg width="78" height="23" viewBox="0 0 78 23" fill="none" xmlns="http://www.w3.org/2000/svg">
<path d="M18.2804 10.5938V19.0459C17.9484 19.4463 17.4357 19.8809 16.7423 20.3496C16.049 20.8086 15.1554 21.2041 14.0617 21.5361C12.9679 21.8682 11.6447 22.0342 10.0919 22.0342C8.71498 22.0342 7.4601 21.8096 6.32729 21.3604C5.19447 20.9014 4.21791 20.2324 3.3976 19.3535C2.58705 18.4746 1.96205 17.4004 1.5226 16.1309C1.08315 14.8516 0.863419 13.3916 0.863419 11.751V10.418C0.863419 8.77734 1.07338 7.31738 1.4933 6.03809C1.92299 4.75879 2.53334 3.67969 3.32436 2.80078C4.11537 1.92188 5.05775 1.25293 6.1515 0.793945C7.24525 0.334961 8.46107 0.105469 9.79897 0.105469C11.6544 0.105469 13.1779 0.408203 14.3693 1.01367C15.5607 1.60938 16.4689 2.43945 17.0939 3.50391C17.7287 4.55859 18.1193 5.76953 18.2658 7.13672H14.0031C13.8956 6.41406 13.6906 5.78418 13.3878 5.24707C13.0851 4.70996 12.6505 4.29004 12.0841 3.9873C11.5275 3.68457 10.8048 3.5332 9.91615 3.5332C9.18373 3.5332 8.52943 3.68457 7.95326 3.9873C7.38686 4.28027 6.90834 4.71484 6.51772 5.29102C6.12709 5.86719 5.82924 6.58008 5.62416 7.42969C5.41908 8.2793 5.31654 9.26562 5.31654 10.3887V11.751C5.31654 12.8643 5.42397 13.8506 5.63881 14.71C5.85365 15.5596 6.17104 16.2773 6.59096 16.8633C7.02065 17.4395 7.54799 17.874 8.17299 18.167C8.79799 18.46 9.52553 18.6064 10.3556 18.6064C11.049 18.6064 11.6251 18.5479 12.0841 18.4307C12.5529 18.3135 12.9288 18.1719 13.2121 18.0059C13.505 17.8301 13.7296 17.6641 13.8859 17.5078V13.7285H9.87221V10.5938H18.2804ZM36.049 9.09961V12.5273H24.9162V9.09961H36.049ZM26.2199 0.413086V21.7412H21.8253V0.413086H26.2199ZM39.1837 0.413086V21.7412H34.8038V0.413086H39.1837ZM51.9425 4.06055L46.1417 21.7412H41.4689L49.3937 0.413086H52.3673L51.9425 4.06055ZM56.7619 21.7412L50.9464 4.06055L50.4777 0.413086H53.4806L61.4494 21.7412H56.7619ZM56.4982 13.8018V17.2441H45.2335V13.8018H56.4982ZM67.8214 0.413086V21.7412H63.4269V0.413086H67.8214ZM76.3175 9.52441V12.9521H66.6203V9.52441H76.3175ZM77.3429 0.413086V3.85547H66.6203V0.413086H77.3429Z" fill="#2E3B4C"/>
</svg>
